# xmcd CD database file
#
# Track frame offsets:
#	150
#	37261
#	60318
#	86911
#	108120
#	130804
#	168202
#	188976
#
# Disc length: 2848 seconds
#
# Revision: 0
# Processed by: cddbd v1.5.1PL0 Copyright (c) Steve Scherf et al.
# Submitted via: CDex 1.50
#
DISCID=650b1e08
DTITLE=Renato Caranto - Straight Ahead
DYEAR=2002
DGENRE=Jazz
TTITLE0=Body and Soul
TTITLE1=Yesterdays
TTITLE2=Istanbul
TTITLE3=Check's in the Mail
TTITLE4=Under the Bridge
TTITLE5=Slippery Blues
TTITLE6=Waiting For Her
TTITLE7=Eight A.M. Expresso
EXTD=YEAR: 2002
EXTT0=
EXTT1=
EXTT2=
EXTT3=
EXTT4=
EXTT5=
EXTT6=
EXTT7=
PLAYORDER=
